<?xml version="1.0" encoding="UTF-8"?>
<svg width="31px" height="30px" viewBox="0 0 31 30" version="1.1" xmlns="http://www.w3.org/2000/svg" xmlns:xlink="http://www.w3.org/1999/xlink">
    <!-- Generator: Sketch 50 (54983) - http://www.bohemiancoding.com/sketch -->
    <title>Group 4</title>
    <desc>Created with Sketch.</desc>
    <defs></defs>
    <g id="Page-1" stroke="none" stroke-width="1" fill="none" fill-rule="evenodd">
        <g id="4---view-in-room-copy-11" transform="translate(-173.000000, -720.000000)" fill="#FFFFFF" fill-rule="nonzero">
            <g id="Group-4" transform="translate(173.500000, 720.000000)">
                <path d="M15,27.5 C21.9035594,27.5 27.5,21.9035594 27.5,15 C27.5,8.09644063 21.9035594,2.5 15,2.5 C8.09644063,2.5 2.5,8.09644063 2.5,15 C2.5,21.9035594 8.09644063,27.5 15,27.5 Z M15,30 C6.71572875,30 0,23.2842712 0,15 C0,6.71572875 6.71572875,0 15,0 C23.2842712,0 30,6.71572875 30,15 C30,23.2842712 23.2842712,30 15,30 Z" id="Oval"></path>
                <polygon id="Path-2" points="19.4661164 10.1161013 21.2338834 11.8838682 12.9146698 20.2030818 8.13214397 15.5894463 9.86785603 13.7901955 12.8831808 16.6990369"></polygon>
            </g>
        </g>
    </g>
</svg>