<?xml version="1.0" standalone="no"?><!DOCTYPE svg PUBLIC "-//W3C//DTD SVG 1.1//EN" "http://www.w3.org/Graphics/SVG/1.1/DTD/svg11.dtd"><svg width="18px" height="20px" viewBox="0 0 18 20" version="1.1" xmlns:xlink="http://www.w3.org/1999/xlink" xmlns="http://www.w3.org/2000/svg" style="cursor:pointer;font-size:13px;height:20px;line-height:13px;text-align:center;width:18px;perspective-origin:9px 10px;-webkit-tap-highlight-color:rgba(26, 26, 26, 0.3);transform-origin:9px 10px;">
  <!-- Generator: Sketch 48.2 (47327) - http://www.bohemiancoding.com/sketch -->
  <g id="bell" stroke="none" stroke-width="1" fill="none" fill-rule="evenodd" transform="translate(-1349.000000, -20.000000)" style="cursor:pointer;font-size:13px;height:auto;line-height:13px;overflow-x:visible;overflow-y:visible;text-align:center;width:auto;perspective-origin:0px 0px;-webkit-tap-highlight-color:rgba(26, 26, 26, 0.3);transform:matrix(1, 0, 0, 1, -1349, -20);transform-origin:0px 0px;fill:none;fill-rule:evenodd;">
    <path d="M1352.0896,34.7458 C1352.9196,33.3318 1353.5366,30.9558 1353.5366,27.0228 C1353.5366,24.7238 1354.3076,21.9818 1357.9846,21.9818 C1361.6596,21.9818 1362.4306,24.7238 1362.4306,27.0228 C1362.4306,30.9558 1363.0476,33.3318 1363.8776,34.7458 L1352.0896,34.7458 Z M1359.1426,36.9428 C1359.1426,37.5818 1358.6226,38.1008 1357.9846,38.1008 C1357.3446,38.1008 1356.8256,37.5818 1356.8256,36.9428 C1356.8256,36.8678 1356.8596,36.8008 1356.8736,36.7278 L1359.1026,36.7278 C1359.1156,36.7998 1359.1426,36.8688 1359.1426,36.9428 Z M1366.9676,34.7458 C1365.7326,34.7458 1364.4126,32.7178 1364.4126,27.0228 C1364.4126,22.6258 1362.0096,19.9998 1357.9846,19.9998 C1353.9586,19.9998 1351.5546,22.6258 1351.5546,27.0228 C1351.5546,32.7178 1350.2356,34.7458 1348.9996,34.7458 L1348.9996,36.7278 L1354.9496,36.7278 C1354.9446,36.8008 1354.9256,36.8698 1354.9256,36.9428 C1354.9256,38.6288 1356.2976,39.9998 1357.9846,39.9998 C1359.6696,39.9998 1361.0416,38.6288 1361.0416,36.9428 C1361.0416,36.8698 1361.0266,36.7998 1361.0216,36.7278 L1366.9676,36.7278 L1366.9676,34.7458 Z" id="bell-1" fill="#000000" style="cursor:pointer;font-size:13px;height:auto;line-height:13px;overflow-x:visible;overflow-y:visible;text-align:center;width:auto;perspective-origin:0px 0px;-webkit-tap-highlight-color:rgba(26, 26, 26, 0.3);transform-origin:0px 0px;fill-rule:evenodd;d:path('M 1352.09 34.7458 C 1352.92 33.3318 1353.54 30.9558 1353.54 27.0228 C 1353.54 24.7238 1354.31 21.9818 1357.98 21.9818 C 1361.66 21.9818 1362.43 24.7238 1362.43 27.0228 C 1362.43 30.9558 1363.05 33.3318 1363.88 34.7458 L 1352.09 34.7458 Z M 1359.14 36.9428 C 1359.14 37.5818 1358.62 38.1008 1357.98 38.1008 C 1357.34 38.1008 1356.83 37.5818 1356.83 36.9428 C 1356.83 36.8678 1356.86 36.8008 1356.87 36.7278 L 1359.1 36.7278 C 1359.12 36.7998 1359.14 36.8688 1359.14 36.9428 Z M 1366.97 34.7458 C 1365.73 34.7458 1364.41 32.7178 1364.41 27.0228 C 1364.41 22.6258 1362.01 19.9998 1357.98 19.9998 C 1353.96 19.9998 1351.55 22.6258 1351.55 27.0228 C 1351.55 32.7178 1350.24 34.7458 1349 34.7458 L 1349 36.7278 L 1354.95 36.7278 C 1354.94 36.8008 1354.93 36.8698 1354.93 36.9428 C 1354.93 38.6288 1356.3 39.9998 1357.98 39.9998 C 1359.67 39.9998 1361.04 38.6288 1361.04 36.9428 C 1361.04 36.8698 1361.03 36.7998 1361.02 36.7278 L 1366.97 36.7278 L 1366.97 34.7458 Z');"/>
  </g>
</svg>